<?xml version="1.0" encoding="UTF-8"?>
<svg xmlns="http://www.w3.org/2000/svg" xmlns:xlink="http://www.w3.org/1999/xlink" width="283px" height="269px" viewBox="0 0 283 269" version="1.1">
<defs>
<linearGradient id="linear0" gradientUnits="userSpaceOnUse" x1="0.579" y1="-0.084" x2="0.948" y2="1.075" gradientTransform="matrix(149.485031,230.615415,-194.975982,126.854673,159.725944,-46.776059)">
<stop offset="0" style="stop-color:rgb(70.980392%,83.921569%,32.54902%);stop-opacity:1;"/>
<stop offset="0.995" style="stop-color:rgb(0.392157%,60%,38.039216%);stop-opacity:1;"/>
</linearGradient>
</defs>
<g id="surface1">
<path style=" stroke:none;fill-rule:nonzero;fill:url(#linear0);" d="M 116.445312 79.476562 C 118.800781 77.433594 122.582031 77.957031 125.085938 79.8125 C 127.59375 81.667969 129.125 84.523438 130.582031 87.289062 C 133.445312 92.738281 137.082031 103.46875 138.460938 107.664062 C 138.527344 105.386719 138.617188 103.109375 138.773438 100.832031 C 139.175781 95.09375 139.964844 89.390625 141.140625 83.761719 C 141.796875 80.964844 142.394531 78.15625 143.25 75.410156 C 143.574219 74.183594 143.953125 72.96875 144.347656 71.761719 C 139.851562 68.984375 136.636719 64.527344 133.835938 60.027344 C 131.617188 56.460938 129.496094 52.386719 130.25 48.25 C 130.527344 46.714844 131.289062 45.167969 132.652344 44.414062 C 134.800781 43.222656 137.546875 44.433594 139.253906 46.199219 C 141.957031 48.988281 143.09375 52.929688 143.78125 56.757812 C 144.445312 60.449219 144.65625 67.628906 144.722656 70.632812 C 145.109375 69.492188 145.503906 68.351562 145.894531 67.210938 C 148.703125 59.570312 152.242188 52.21875 156.464844 45.261719 C 149.945312 40.210938 148.28125 29.824219 153.023438 23.039062 C 153.371094 22.453125 153.878906 21.980469 154.480469 21.664062 C 156.417969 20.835938 158.199219 23.148438 158.859375 25.152344 C 160.453125 30.003906 158.257812 39.988281 157.277344 43.921875 C 161.582031 37.011719 166.550781 30.542969 172.117188 24.605469 C 173.441406 21.792969 177.113281 12.6875 178.601562 10.328125 C 180.007812 8.101562 181.824219 6.011719 184.238281 4.964844 C 186.652344 3.917969 189.761719 4.15625 191.5625 6.074219 C 194.265625 8.949219 192.835938 13.769531 190.375 16.851562 C 187.191406 20.832031 176.039062 24.207031 172.660156 25.15625 C 167.347656 30.914062 162.59375 37.164062 158.457031 43.824219 C 160.296875 42.507812 167.1875 37.59375 170.40625 35.691406 C 174.140625 33.492188 179.0625 32.160156 182.667969 34.570312 C 184.351562 35.695312 185.535156 37.984375 184.574219 39.769531 C 183.800781 41.210938 182.019531 41.722656 180.421875 42.054688 C 173.128906 43.574219 165.691406 44.277344 158.246094 44.15625 C 153.679688 51.554688 149.898438 59.414062 146.957031 67.601562 C 146.535156 68.863281 146.105469 70.121094 145.691406 71.386719 C 148.21875 68.859375 158.808594 58.492188 165.289062 55.769531 C 168.277344 54.515625 172.523438 54.101562 174.019531 56.976562 C 174.816406 58.5 174.410156 60.4375 173.417969 61.84375 C 172.425781 63.246094 170.945312 64.21875 169.460938 65.074219 C 162.753906 68.941406 153.296875 71.441406 145.519531 71.921875 C 145.113281 73.183594 144.722656 74.453125 144.394531 75.738281 C 143.566406 78.460938 142.996094 81.25 142.363281 84.023438 C 141.246094 89.597656 140.503906 95.242188 140.144531 100.917969 C 139.96875 103.800781 139.878906 106.683594 139.84375 109.570312 C 142.105469 102.078125 146.015625 95.195312 151.289062 89.417969 C 153.558594 86.941406 156.203125 84.609375 159.445312 83.726562 C 162.6875 82.847656 166.628906 83.808594 168.339844 86.707031 C 170.300781 90.035156 168.679688 94.371094 166.300781 97.414062 C 160.1875 105.25 150.050781 108.585938 140.417969 110.988281 L 139.839844 111.082031 C 139.789062 119.089844 140.09375 127.125 140.042969 135.179688 C 140.007812 139.730469 139.824219 144.277344 139.484375 148.828125 C 142.492188 142.769531 152.378906 123.785156 161.273438 117.125 C 163.476562 115.476562 166.097656 113.910156 168.804688 114.375 C 171.367188 114.816406 173.367188 117.109375 173.953125 119.652344 C 174.539062 122.191406 173.890625 124.894531 172.679688 127.199219 C 171.183594 130.050781 168.886719 132.382812 166.582031 134.621094 C 158.730469 142.238281 150.125 149.4375 139.34375 150.621094 C 138.339844 163.039062 136.132812 175.332031 132.75 187.324219 C 135.8125 181.65625 141.507812 171.566406 145.820312 166.632812 C 148.949219 163.050781 152.445312 159.609375 156.832031 157.785156 C 159.8125 156.542969 163.074219 156.109375 166.300781 155.976562 C 169.019531 155.863281 171.953125 156.023438 174.101562 157.691406 C 176.339844 159.429688 177.21875 162.519531 176.871094 165.335938 C 176.519531 168.148438 175.117188 170.726562 173.484375 173.039062 C 166.738281 182.449219 156.167969 188.371094 144.636719 189.203125 C 141.804688 189.386719 135.277344 191.050781 131.550781 191.375 C 130.378906 195.164062 129.085938 198.910156 127.664062 202.617188 C 124.339844 211.28125 120.273438 219.640625 115.515625 227.601562 C 122.023438 222.175781 143.136719 205.003906 156.210938 199.652344 C 161.671875 197.421875 168.429688 195.800781 173.054688 199.46875 C 177.425781 202.933594 177.617188 209.917969 174.757812 214.714844 C 171.898438 219.511719 166.792969 222.492188 161.667969 224.6875 C 146.859375 231.023438 130.035156 233.273438 114.398438 229.46875 C 113.601562 230.753906 112.785156 232.027344 111.953125 233.292969 C 105.605469 242.941406 98.070312 251.75 89.527344 259.511719 L 87.785156 257.558594 C 96.144531 250.066406 103.542969 241.558594 109.800781 232.230469 L 109.539062 232.222656 L 94.597656 218.664062 C 91.976562 216.289062 89.347656 213.898438 87.140625 211.140625 C 84.769531 208.203125 82.953125 204.855469 81.785156 201.265625 C 79.820312 195.128906 80.496094 187.359375 85.777344 183.679688 C 86.902344 182.832031 88.273438 182.367188 89.683594 182.351562 C 91.933594 182.425781 93.820312 184.035156 95.339844 185.699219 C 103.027344 194.128906 106.171875 205.640625 109.023438 216.691406 C 110.277344 221.535156 111.511719 226.671875 110.296875 231.488281 C 116.464844 222.183594 121.625 212.242188 125.6875 201.839844 C 126.566406 199.613281 127.386719 197.363281 128.167969 195.101562 C 124.773438 193.464844 112.066406 187.257812 106.707031 183.515625 C 100.496094 179.171875 95.566406 172.824219 93.554688 165.507812 C 92.839844 162.914062 92.511719 160.050781 93.621094 157.601562 C 95.035156 154.480469 98.617188 152.707031 102.035156 152.789062 C 105.453125 152.867188 108.679688 154.535156 111.292969 156.746094 C 115.351562 160.171875 118.136719 164.835938 120.832031 169.417969 C 124.925781 176.375 129.109375 183.972656 129.25 191.875 C 133.589844 178.386719 136.398438 164.449219 137.625 150.332031 C 132.621094 148.609375 127.605469 146.832031 123.042969 144.15625 C 118.269531 141.355469 113.972656 137.464844 111.605469 132.457031 C 110.484375 130.078125 109.8125 127.390625 110.324219 124.8125 C 110.835938 122.234375 112.71875 119.828125 115.28125 119.257812 C 117.726562 118.710938 120.21875 119.851562 122.378906 121.132812 C 126.585938 123.621094 135.851562 138.132812 137.960938 145.996094 C 138.207031 142.386719 138.355469 138.773438 138.417969 135.160156 C 138.53125 126.566406 138.230469 117.9375 138.410156 109.292969 C 127.96875 107.546875 118.550781 99.269531 115.199219 89.207031 C 114.105469 85.914062 113.820312 81.75 116.445312 79.476562 Z M 116.445312 79.476562 "/>
</g>
</svg>
